<mxfile host="app.diagrams.net" agent="Mozilla/5.0 (Windows NT 10.0; Win64; x64) AppleWebKit/537.36 (KHTML, like Gecko) Chrome/131.0.0.0 Safari/537.36" version="26.0.2">
  <diagram name="Page-1" id="hbSZf16i7k4gQkGJjNPj">
    <mxGraphModel grid="1" page="1" gridSize="10" guides="1" tooltips="1" connect="1" arrows="1" fold="1" pageScale="1" pageWidth="850" pageHeight="1100" math="0" shadow="0">
      <root>
        <mxCell id="0" />
        <mxCell id="1" parent="0" />
        <mxCell id="jDuIk3152oL8AJDtT_27-1" value="Client" style="swimlane;fontStyle=1;align=center;verticalAlign=top;childLayout=stackLayout;horizontal=1;startSize=44.8;horizontalStack=0;resizeParent=1;resizeParentMax=0;resizeLast=0;collapsible=0;marginBottom=0;" vertex="1" parent="1">
          <mxGeometry x="453" y="20" width="155" height="111.8" as="geometry" />
        </mxCell>
        <mxCell id="jDuIk3152oL8AJDtT_27-2" value="+POST /borrow" style="text;strokeColor=none;fillColor=none;align=left;verticalAlign=top;spacingLeft=4;spacingRight=4;overflow=hidden;rotatable=0;points=[[0,0.5],[1,0.5]];portConstraint=eastwest;" vertex="1" parent="jDuIk3152oL8AJDtT_27-1">
          <mxGeometry y="44.8" width="155" height="45" as="geometry" />
        </mxCell>
        <mxCell id="jDuIk3152oL8AJDtT_27-3" style="line;strokeWidth=1;fillColor=none;align=left;verticalAlign=middle;spacingTop=-1;spacingLeft=3;spacingRight=3;rotatable=0;labelPosition=right;points=[];portConstraint=eastwest;strokeColor=inherit;" vertex="1" parent="jDuIk3152oL8AJDtT_27-1">
          <mxGeometry y="89.8" width="155" height="22" as="geometry" />
        </mxCell>
        <mxCell id="jDuIk3152oL8AJDtT_27-4" value="Server" style="swimlane;fontStyle=1;align=center;verticalAlign=top;childLayout=stackLayout;horizontal=1;startSize=47.2;horizontalStack=0;resizeParent=1;resizeParentMax=0;resizeLast=0;collapsible=0;marginBottom=0;" vertex="1" parent="1">
          <mxGeometry x="416" y="213" width="227" height="102.2" as="geometry" />
        </mxCell>
        <mxCell id="jDuIk3152oL8AJDtT_27-5" style="line;strokeWidth=1;fillColor=none;align=left;verticalAlign=middle;spacingTop=-1;spacingLeft=3;spacingRight=3;rotatable=0;labelPosition=right;points=[];portConstraint=eastwest;strokeColor=inherit;" vertex="1" parent="jDuIk3152oL8AJDtT_27-4">
          <mxGeometry y="47.2" width="227" height="8" as="geometry" />
        </mxCell>
        <mxCell id="jDuIk3152oL8AJDtT_27-6" value="+handleRequest(request)" style="text;strokeColor=none;fillColor=none;align=left;verticalAlign=top;spacingLeft=4;spacingRight=4;overflow=hidden;rotatable=0;points=[[0,0.5],[1,0.5]];portConstraint=eastwest;" vertex="1" parent="jDuIk3152oL8AJDtT_27-4">
          <mxGeometry y="55.2" width="227" height="47" as="geometry" />
        </mxCell>
        <mxCell id="jDuIk3152oL8AJDtT_27-7" value="BorrowRouter" style="swimlane;fontStyle=1;align=center;verticalAlign=top;childLayout=stackLayout;horizontal=1;startSize=47.2;horizontalStack=0;resizeParent=1;resizeParentMax=0;resizeLast=0;collapsible=0;marginBottom=0;" vertex="1" parent="1">
          <mxGeometry x="402" y="411" width="257" height="102.2" as="geometry" />
        </mxCell>
        <mxCell id="jDuIk3152oL8AJDtT_27-8" style="line;strokeWidth=1;fillColor=none;align=left;verticalAlign=middle;spacingTop=-1;spacingLeft=3;spacingRight=3;rotatable=0;labelPosition=right;points=[];portConstraint=eastwest;strokeColor=inherit;" vertex="1" parent="jDuIk3152oL8AJDtT_27-7">
          <mxGeometry y="47.2" width="257" height="8" as="geometry" />
        </mxCell>
        <mxCell id="jDuIk3152oL8AJDtT_27-9" value="+routeToService(request)" style="text;strokeColor=none;fillColor=none;align=left;verticalAlign=top;spacingLeft=4;spacingRight=4;overflow=hidden;rotatable=0;points=[[0,0.5],[1,0.5]];portConstraint=eastwest;" vertex="1" parent="jDuIk3152oL8AJDtT_27-7">
          <mxGeometry y="55.2" width="257" height="47" as="geometry" />
        </mxCell>
        <mxCell id="jDuIk3152oL8AJDtT_27-10" value="BorrowService" style="swimlane;fontStyle=1;align=center;verticalAlign=top;childLayout=stackLayout;horizontal=1;startSize=31.733333333333334;horizontalStack=0;resizeParent=1;resizeParentMax=0;resizeLast=0;collapsible=0;marginBottom=0;" vertex="1" parent="1">
          <mxGeometry x="396" y="610" width="268" height="231.73333333333335" as="geometry" />
        </mxCell>
        <mxCell id="jDuIk3152oL8AJDtT_27-11" style="line;strokeWidth=1;fillColor=none;align=left;verticalAlign=middle;spacingTop=-1;spacingLeft=3;spacingRight=3;rotatable=0;labelPosition=right;points=[];portConstraint=eastwest;strokeColor=inherit;" vertex="1" parent="jDuIk3152oL8AJDtT_27-10">
          <mxGeometry y="31.733333333333334" width="268" height="8" as="geometry" />
        </mxCell>
        <mxCell id="jDuIk3152oL8AJDtT_27-12" value="+borrowMedia()" style="text;strokeColor=none;fillColor=none;align=left;verticalAlign=top;spacingLeft=4;spacingRight=4;overflow=hidden;rotatable=0;points=[[0,0.5],[1,0.5]];portConstraint=eastwest;" vertex="1" parent="jDuIk3152oL8AJDtT_27-10">
          <mxGeometry y="39.733333333333334" width="268" height="32" as="geometry" />
        </mxCell>
        <mxCell id="jDuIk3152oL8AJDtT_27-13" value="+getMemberById()" style="text;strokeColor=none;fillColor=none;align=left;verticalAlign=top;spacingLeft=4;spacingRight=4;overflow=hidden;rotatable=0;points=[[0,0.5],[1,0.5]];portConstraint=eastwest;" vertex="1" parent="jDuIk3152oL8AJDtT_27-10">
          <mxGeometry y="71.73333333333333" width="268" height="32" as="geometry" />
        </mxCell>
        <mxCell id="jDuIk3152oL8AJDtT_27-14" value="+checkMediaAvailability()" style="text;strokeColor=none;fillColor=none;align=left;verticalAlign=top;spacingLeft=4;spacingRight=4;overflow=hidden;rotatable=0;points=[[0,0.5],[1,0.5]];portConstraint=eastwest;" vertex="1" parent="jDuIk3152oL8AJDtT_27-10">
          <mxGeometry y="103.73333333333333" width="268" height="32" as="geometry" />
        </mxCell>
        <mxCell id="jDuIk3152oL8AJDtT_27-15" value="+updateMediaQuantity()" style="text;strokeColor=none;fillColor=none;align=left;verticalAlign=top;spacingLeft=4;spacingRight=4;overflow=hidden;rotatable=0;points=[[0,0.5],[1,0.5]];portConstraint=eastwest;" vertex="1" parent="jDuIk3152oL8AJDtT_27-10">
          <mxGeometry y="135.73333333333335" width="268" height="32" as="geometry" />
        </mxCell>
        <mxCell id="jDuIk3152oL8AJDtT_27-16" value="+insertBorrowingRequest()" style="text;strokeColor=none;fillColor=none;align=left;verticalAlign=top;spacingLeft=4;spacingRight=4;overflow=hidden;rotatable=0;points=[[0,0.5],[1,0.5]];portConstraint=eastwest;" vertex="1" parent="jDuIk3152oL8AJDtT_27-10">
          <mxGeometry y="167.73333333333335" width="268" height="32" as="geometry" />
        </mxCell>
        <mxCell id="jDuIk3152oL8AJDtT_27-17" value="+sendEmail()" style="text;strokeColor=none;fillColor=none;align=left;verticalAlign=top;spacingLeft=4;spacingRight=4;overflow=hidden;rotatable=0;points=[[0,0.5],[1,0.5]];portConstraint=eastwest;" vertex="1" parent="jDuIk3152oL8AJDtT_27-10">
          <mxGeometry y="199.73333333333335" width="268" height="32" as="geometry" />
        </mxCell>
        <mxCell id="jDuIk3152oL8AJDtT_27-18" value="BorrowDAL" style="swimlane;fontStyle=1;align=center;verticalAlign=top;childLayout=stackLayout;horizontal=1;startSize=34.54545454545455;horizontalStack=0;resizeParent=1;resizeParentMax=0;resizeLast=0;collapsible=0;marginBottom=0;" vertex="1" parent="1">
          <mxGeometry x="162" y="928" width="255" height="182.54545454545456" as="geometry" />
        </mxCell>
        <mxCell id="jDuIk3152oL8AJDtT_27-19" style="line;strokeWidth=1;fillColor=none;align=left;verticalAlign=middle;spacingTop=-1;spacingLeft=3;spacingRight=3;rotatable=0;labelPosition=right;points=[];portConstraint=eastwest;strokeColor=inherit;" vertex="1" parent="jDuIk3152oL8AJDtT_27-18">
          <mxGeometry y="34.54545454545455" width="255" height="8" as="geometry" />
        </mxCell>
        <mxCell id="jDuIk3152oL8AJDtT_27-20" value="+getMemberById()" style="text;strokeColor=none;fillColor=none;align=left;verticalAlign=top;spacingLeft=4;spacingRight=4;overflow=hidden;rotatable=0;points=[[0,0.5],[1,0.5]];portConstraint=eastwest;" vertex="1" parent="jDuIk3152oL8AJDtT_27-18">
          <mxGeometry y="42.54545454545455" width="255" height="35" as="geometry" />
        </mxCell>
        <mxCell id="jDuIk3152oL8AJDtT_27-21" value="+checkMediaAvailability()" style="text;strokeColor=none;fillColor=none;align=left;verticalAlign=top;spacingLeft=4;spacingRight=4;overflow=hidden;rotatable=0;points=[[0,0.5],[1,0.5]];portConstraint=eastwest;" vertex="1" parent="jDuIk3152oL8AJDtT_27-18">
          <mxGeometry y="77.54545454545455" width="255" height="35" as="geometry" />
        </mxCell>
        <mxCell id="jDuIk3152oL8AJDtT_27-22" value="+updateMediaQuantity()" style="text;strokeColor=none;fillColor=none;align=left;verticalAlign=top;spacingLeft=4;spacingRight=4;overflow=hidden;rotatable=0;points=[[0,0.5],[1,0.5]];portConstraint=eastwest;" vertex="1" parent="jDuIk3152oL8AJDtT_27-18">
          <mxGeometry y="112.54545454545455" width="255" height="35" as="geometry" />
        </mxCell>
        <mxCell id="jDuIk3152oL8AJDtT_27-23" value="+insertBorrowingRequest()" style="text;strokeColor=none;fillColor=none;align=left;verticalAlign=top;spacingLeft=4;spacingRight=4;overflow=hidden;rotatable=0;points=[[0,0.5],[1,0.5]];portConstraint=eastwest;" vertex="1" parent="jDuIk3152oL8AJDtT_27-18">
          <mxGeometry y="147.54545454545456" width="255" height="35" as="geometry" />
        </mxCell>
        <mxCell id="jDuIk3152oL8AJDtT_27-24" value="NotificationDAL" style="swimlane;fontStyle=1;align=center;verticalAlign=top;childLayout=stackLayout;horizontal=1;startSize=47.2;horizontalStack=0;resizeParent=1;resizeParentMax=0;resizeLast=0;collapsible=0;marginBottom=0;" vertex="1" parent="1">
          <mxGeometry x="653" y="964" width="229" height="102.2" as="geometry" />
        </mxCell>
        <mxCell id="jDuIk3152oL8AJDtT_27-25" style="line;strokeWidth=1;fillColor=none;align=left;verticalAlign=middle;spacingTop=-1;spacingLeft=3;spacingRight=3;rotatable=0;labelPosition=right;points=[];portConstraint=eastwest;strokeColor=inherit;" vertex="1" parent="jDuIk3152oL8AJDtT_27-24">
          <mxGeometry y="47.2" width="229" height="8" as="geometry" />
        </mxCell>
        <mxCell id="jDuIk3152oL8AJDtT_27-26" value="+insertNotification()" style="text;strokeColor=none;fillColor=none;align=left;verticalAlign=top;spacingLeft=4;spacingRight=4;overflow=hidden;rotatable=0;points=[[0,0.5],[1,0.5]];portConstraint=eastwest;" vertex="1" parent="jDuIk3152oL8AJDtT_27-24">
          <mxGeometry y="55.2" width="229" height="47" as="geometry" />
        </mxCell>
        <mxCell id="jDuIk3152oL8AJDtT_27-27" value="EmailService" style="swimlane;fontStyle=1;align=center;verticalAlign=top;childLayout=stackLayout;horizontal=1;startSize=47.2;horizontalStack=0;resizeParent=1;resizeParentMax=0;resizeLast=0;collapsible=0;marginBottom=0;" vertex="1" parent="1">
          <mxGeometry x="943" y="964" width="165" height="102.2" as="geometry" />
        </mxCell>
        <mxCell id="jDuIk3152oL8AJDtT_27-28" style="line;strokeWidth=1;fillColor=none;align=left;verticalAlign=middle;spacingTop=-1;spacingLeft=3;spacingRight=3;rotatable=0;labelPosition=right;points=[];portConstraint=eastwest;strokeColor=inherit;" vertex="1" parent="jDuIk3152oL8AJDtT_27-27">
          <mxGeometry y="47.2" width="165" height="8" as="geometry" />
        </mxCell>
        <mxCell id="jDuIk3152oL8AJDtT_27-29" value="+sendEmail()" style="text;strokeColor=none;fillColor=none;align=left;verticalAlign=top;spacingLeft=4;spacingRight=4;overflow=hidden;rotatable=0;points=[[0,0.5],[1,0.5]];portConstraint=eastwest;" vertex="1" parent="jDuIk3152oL8AJDtT_27-27">
          <mxGeometry y="55.2" width="165" height="47" as="geometry" />
        </mxCell>
        <mxCell id="jDuIk3152oL8AJDtT_27-30" value="DB" style="swimlane;fontStyle=1;align=center;verticalAlign=top;childLayout=stackLayout;horizontal=1;startSize=47.2;horizontalStack=0;resizeParent=1;resizeParentMax=0;resizeLast=0;collapsible=0;marginBottom=0;" vertex="1" parent="1">
          <mxGeometry x="403" y="1199" width="154" height="102.2" as="geometry" />
        </mxCell>
        <mxCell id="jDuIk3152oL8AJDtT_27-31" style="line;strokeWidth=1;fillColor=none;align=left;verticalAlign=middle;spacingTop=-1;spacingLeft=3;spacingRight=3;rotatable=0;labelPosition=right;points=[];portConstraint=eastwest;strokeColor=inherit;" vertex="1" parent="jDuIk3152oL8AJDtT_27-30">
          <mxGeometry y="47.2" width="154" height="8" as="geometry" />
        </mxCell>
        <mxCell id="jDuIk3152oL8AJDtT_27-32" value="+executeQuery()" style="text;strokeColor=none;fillColor=none;align=left;verticalAlign=top;spacingLeft=4;spacingRight=4;overflow=hidden;rotatable=0;points=[[0,0.5],[1,0.5]];portConstraint=eastwest;" vertex="1" parent="jDuIk3152oL8AJDtT_27-30">
          <mxGeometry y="55.2" width="154" height="47" as="geometry" />
        </mxCell>
        <mxCell id="jDuIk3152oL8AJDtT_27-33" value="POST /borrow" style="curved=1;startArrow=none;endArrow=open;endSize=12;exitX=0.5;exitY=1;entryX=0.5;entryY=0;rounded=0;" edge="1" parent="1" source="jDuIk3152oL8AJDtT_27-1" target="jDuIk3152oL8AJDtT_27-4">
          <mxGeometry relative="1" as="geometry">
            <Array as="points" />
          </mxGeometry>
        </mxCell>
        <mxCell id="jDuIk3152oL8AJDtT_27-34" value="Forward request" style="curved=1;startArrow=none;endArrow=open;endSize=12;exitX=0.5;exitY=1;entryX=0.5;entryY=0;rounded=0;" edge="1" parent="1" source="jDuIk3152oL8AJDtT_27-4" target="jDuIk3152oL8AJDtT_27-7">
          <mxGeometry relative="1" as="geometry">
            <Array as="points" />
          </mxGeometry>
        </mxCell>
        <mxCell id="jDuIk3152oL8AJDtT_27-35" value="borrowMedia()" style="curved=1;startArrow=none;endArrow=open;endSize=12;exitX=0.5;exitY=1;entryX=0.5;entryY=0;rounded=0;" edge="1" parent="1" source="jDuIk3152oL8AJDtT_27-7" target="jDuIk3152oL8AJDtT_27-10">
          <mxGeometry relative="1" as="geometry">
            <Array as="points" />
          </mxGeometry>
        </mxCell>
        <mxCell id="jDuIk3152oL8AJDtT_27-36" value="getMemberById()" style="curved=1;startArrow=none;endArrow=open;endSize=12;exitX=0;exitY=0.67;entryX=0;entryY=0.18;rounded=0;" edge="1" parent="1" source="jDuIk3152oL8AJDtT_27-10" target="jDuIk3152oL8AJDtT_27-18">
          <mxGeometry relative="1" as="geometry">
            <Array as="points">
              <mxPoint x="20" y="892" />
            </Array>
          </mxGeometry>
        </mxCell>
        <mxCell id="jDuIk3152oL8AJDtT_27-37" value="checkMediaAvailability()" style="curved=1;startArrow=none;endArrow=open;endSize=12;exitX=0;exitY=0.76;entryX=0.22;entryY=0;rounded=0;" edge="1" parent="1" source="jDuIk3152oL8AJDtT_27-10" target="jDuIk3152oL8AJDtT_27-18">
          <mxGeometry relative="1" as="geometry">
            <Array as="points">
              <mxPoint x="193" y="892" />
            </Array>
          </mxGeometry>
        </mxCell>
        <mxCell id="jDuIk3152oL8AJDtT_27-38" value="updateMediaQuantity()" style="curved=1;startArrow=none;endArrow=open;endSize=12;exitX=0.09;exitY=1;entryX=0.78;entryY=0;rounded=0;" edge="1" parent="1" source="jDuIk3152oL8AJDtT_27-10" target="jDuIk3152oL8AJDtT_27-18">
          <mxGeometry relative="1" as="geometry">
            <Array as="points">
              <mxPoint x="387" y="892" />
            </Array>
          </mxGeometry>
        </mxCell>
        <mxCell id="jDuIk3152oL8AJDtT_27-39" value="insertBorrowingRequest()" style="curved=1;startArrow=none;endArrow=open;endSize=12;exitX=0.66;exitY=1;entryX=1;entryY=0.2;rounded=0;" edge="1" parent="1" source="jDuIk3152oL8AJDtT_27-10" target="jDuIk3152oL8AJDtT_27-18">
          <mxGeometry relative="1" as="geometry">
            <Array as="points">
              <mxPoint x="584" y="892" />
            </Array>
          </mxGeometry>
        </mxCell>
        <mxCell id="jDuIk3152oL8AJDtT_27-40" value="insertNotification()" style="curved=1;startArrow=none;endArrow=open;endSize=12;exitX=1;exitY=0.86;entryX=0.5;entryY=0;rounded=0;" edge="1" parent="1" source="jDuIk3152oL8AJDtT_27-10" target="jDuIk3152oL8AJDtT_27-24">
          <mxGeometry relative="1" as="geometry">
            <Array as="points">
              <mxPoint x="768" y="892" />
            </Array>
          </mxGeometry>
        </mxCell>
        <mxCell id="jDuIk3152oL8AJDtT_27-41" value="sendEmail()" style="curved=1;startArrow=none;endArrow=open;endSize=12;exitX=1;exitY=0.7;entryX=0.31;entryY=0;rounded=0;" edge="1" parent="1" source="jDuIk3152oL8AJDtT_27-10" target="jDuIk3152oL8AJDtT_27-27">
          <mxGeometry relative="1" as="geometry">
            <Array as="points">
              <mxPoint x="958" y="892" />
            </Array>
          </mxGeometry>
        </mxCell>
        <mxCell id="jDuIk3152oL8AJDtT_27-42" value="Query execution" style="curved=1;startArrow=none;endArrow=open;endSize=12;exitX=0.5;exitY=1;entryX=0;entryY=0.18;rounded=0;" edge="1" parent="1" source="jDuIk3152oL8AJDtT_27-18" target="jDuIk3152oL8AJDtT_27-30">
          <mxGeometry relative="1" as="geometry">
            <Array as="points">
              <mxPoint x="290" y="1162" />
            </Array>
          </mxGeometry>
        </mxCell>
        <mxCell id="jDuIk3152oL8AJDtT_27-43" value="Insert notification" style="curved=1;startArrow=none;endArrow=open;endSize=12;exitX=0.5;exitY=1;entryX=1;entryY=0.29;rounded=0;" edge="1" parent="1" source="jDuIk3152oL8AJDtT_27-24" target="jDuIk3152oL8AJDtT_27-30">
          <mxGeometry relative="1" as="geometry">
            <Array as="points">
              <mxPoint x="768" y="1162" />
            </Array>
          </mxGeometry>
        </mxCell>
        <mxCell id="jDuIk3152oL8AJDtT_27-44" value="Email confirmation" style="curved=1;startArrow=none;endArrow=open;endSize=12;exitX=0.69;exitY=0;entryX=1;entryY=0.65;rounded=0;" edge="1" parent="1" source="jDuIk3152oL8AJDtT_27-27" target="jDuIk3152oL8AJDtT_27-10">
          <mxGeometry relative="1" as="geometry">
            <Array as="points">
              <mxPoint x="1093" y="892" />
            </Array>
          </mxGeometry>
        </mxCell>
      </root>
    </mxGraphModel>
  </diagram>
</mxfile>
